<svg xmlns="http://www.w3.org/2000/svg" viewBox="0 0 90 90" width="90" height="90">
  <title>Steward Care Health — Icon Mark</title>
  <rect x="8" y="50" width="38" height="18" rx="7" fill="#1B2B4B"/>
  <rect x="10" y="26" width="7" height="28" rx="3.5" fill="#1B2B4B"/>
  <rect x="19" y="18" width="7" height="36" rx="3.5" fill="#1B2B4B"/>
  <rect x="28" y="16" width="7" height="38" rx="3.5" fill="#1B2B4B"/>
  <rect x="37" y="22" width="7" height="32" rx="3.5" fill="#1B2B4B"/>
  <rect x="2" y="46" width="9" height="22" rx="4.5" transform="rotate(-28 6 57)" fill="#1B2B4B"/>
  <rect x="34" y="54" width="34" height="16" rx="6" fill="#C4963A"/>
  <rect x="36" y="32" width="6" height="26" rx="3" fill="#C4963A"/>
  <rect x="44" y="24" width="6" height="34" rx="3" fill="#C4963A"/>
  <rect x="52" y="22" width="6" height="36" rx="3" fill="#C4963A"/>
  <rect x="60" y="28" width="6" height="30" rx="3" fill="#C4963A"/>
  <rect x="32" y="52" width="8" height="18" rx="4" transform="rotate(22 36 61)" fill="#C4963A"/>
  <rect x="36" y="54" width="10" height="16" rx="4" fill="#E8C96A" opacity="0.55"/>
</svg>
